<svg width="162" height="40" viewBox="0 0 162 40" fill="none" xmlns="http://www.w3.org/2000/svg">
<path d="M1.1405 4.18722V20.8521H5.44893V1.83057H3.48479C2.17537 1.83057 1.1405 2.88264 1.1405 4.18722Z" fill="#050509"/>
<path d="M20.5918 4.14514V13.2772L11.9749 1.87265L11.9538 1.85161H8.04663V20.8732H12.2706V9.02678L21.162 20.8101L21.1831 20.8311H24.7946V1.83057H22.8938C21.6266 1.83057 20.5918 2.8616 20.5918 4.14514Z" fill="#050509"/>
<path d="M43.9502 5.66013V1.83057H42.1973C40.8456 1.83057 39.7263 2.92473 39.7263 4.29243V13.2772L31.1305 1.87265L31.1094 1.85161H27.2023V20.8732H31.4262V9.02678L40.2965 20.8101L40.3176 20.8311H43.9291V17.3172C42.1973 13.6349 42.1973 9.3424 43.9502 5.66013Z" fill="#050509"/>
<path d="M85.4294 1.83057H80.7831L75.9044 14.9605L71.0469 1.83057H66.2949L66.5695 2.5039C68.6392 4.83951 69.843 7.82741 69.9698 10.9626L73.9825 20.9784H77.7629L85.4083 1.95682L85.4294 1.83057Z" fill="#050509"/>
<path d="M93.1592 1.70435H89.231L81.1421 20.747L81.0999 20.8522H85.5139L87.2457 16.6228H95.1022L96.8129 20.8101L96.8341 20.8522H101.333L93.1803 1.74643L93.1592 1.70435ZM88.7663 12.7932L91.1528 6.98578L93.5394 12.7932H88.7663Z" fill="#050509"/>
<path d="M97.4888 3.42977C97.4888 4.77643 98.587 5.87059 99.9387 5.87059H103.212V20.8943H107.521V5.87059H113.265V1.89374H97.4888V3.42977Z" fill="#050509"/>
<path d="M117.046 1.83057H115.166V20.8521H119.474V4.27139C119.474 2.92473 118.397 1.83057 117.046 1.83057Z" fill="#050509"/>
<path d="M132.146 1.51495C126.465 1.51495 122.009 5.82847 122.009 11.3414V11.3834C122.009 16.9595 126.338 21.1678 132.083 21.1678C137.764 21.1678 142.22 16.8542 142.22 11.3414V11.2782C142.22 5.70222 137.891 1.51495 132.146 1.51495ZM137.722 11.3834C137.722 14.687 135.335 17.1699 132.146 17.1699C128.936 17.1699 126.528 14.6659 126.528 11.3203V11.2572C126.528 7.95367 128.915 5.47077 132.104 5.47077C135.314 5.47077 137.722 7.97471 137.722 11.3203V11.3834Z" fill="#050509"/>
<path d="M158.145 1.83057H156.244V13.2772L147.648 1.87265L147.627 1.83057H143.72V20.8521H147.944V9.02678L156.835 20.8101L156.856 20.8311H160.468V4.14514C160.468 2.8616 159.433 1.83057 158.145 1.83057Z" fill="#050509"/>
<path d="M55.5027 4.90265C55.4394 4.94473 55.376 4.96578 55.2915 5.00786C56.1152 5.07098 56.9178 5.19723 57.6992 5.42869C60.7193 6.3966 62.4934 9.59492 62.6412 12.4566C62.8524 16.707 59.7267 20.2419 55.1226 20.3472C52.5248 20.4313 50.0116 19.3792 48.2375 17.4855C46.7169 15.8232 45.7877 13.8664 45.4286 11.4676C45.4075 11.4045 45.3441 11.3624 45.2808 11.3624C45.2174 11.3624 45.1541 11.4255 45.1541 11.4887C45.1329 12.0147 45.1752 12.5407 45.2597 13.0457C45.9144 16.7911 48.5755 19.9263 52.377 21.4413C56.1574 22.9353 59.7056 22.3461 62.9791 20.1367C68.1957 16.6228 67.9845 8.79534 62.43 5.55494C60.5715 4.50286 57.5302 3.9137 55.5027 4.90265Z" fill="url(#paint0_linear_1111_4341)"/>
<path d="M57.3823 17.7801C57.4457 17.738 57.5091 17.717 57.5935 17.6749C56.7699 17.6328 55.9673 17.5276 55.1648 17.3172C52.1235 16.4334 50.265 13.2562 50.0749 10.3945C49.7792 6.12307 52.8205 2.52496 57.4035 2.31455C60.0012 2.16726 62.5356 3.15621 64.3519 5.00787C65.9147 6.62807 66.8862 8.58493 67.3086 10.9416C67.3297 11.0047 67.3931 11.0468 67.4564 11.0468C67.5198 11.0468 67.5832 10.9837 67.5832 10.9205C67.5832 10.3945 67.5409 9.86847 67.4564 9.36347C66.6961 5.61807 63.9717 2.54601 60.149 1.13622C56.3263 -0.273563 52.7994 0.399766 49.5892 2.67225C44.4359 6.33348 44.8372 14.1609 50.4762 17.2541C52.3347 18.2851 55.376 18.8111 57.3823 17.7801Z" fill="url(#paint1_linear_1111_4341)"/>
<path d="M1.07715 28.6796C1.07715 27.1857 2.19649 25.9863 3.78047 25.9863C4.75198 25.9863 5.34333 26.302 5.82909 26.7859L5.11102 27.6276C4.70974 27.2699 4.30847 27.0384 3.78047 27.0384C2.91457 27.0384 2.28097 27.7538 2.28097 28.6586V28.6796C2.28097 29.5634 2.89345 30.2998 3.78047 30.2998C4.37183 30.2998 4.73086 30.0684 5.15326 29.6896L5.87133 30.4261C5.34333 30.9942 4.75198 31.3519 3.73824 31.3519C2.21761 31.3309 1.07715 30.1526 1.07715 28.6796Z" fill="#050509"/>
<path d="M6.23035 30.1104C6.23035 29.2267 6.88506 28.8269 7.83545 28.8269C8.23672 28.8269 8.5324 28.89 8.80695 28.9952V28.9321C8.80695 28.4692 8.51128 28.2167 7.96216 28.2167C7.53977 28.2167 7.22297 28.3009 6.86394 28.4271L6.58938 27.5644C7.0329 27.375 7.45529 27.2488 8.13112 27.2488C8.74359 27.2488 9.18711 27.4171 9.48279 27.6907C9.77846 27.9852 9.90518 28.4271 9.90518 28.9531V31.2467H8.80695V30.8258C8.5324 31.1204 8.15224 31.3308 7.60313 31.3308C6.84282 31.3098 6.23035 30.889 6.23035 30.1104ZM8.80695 29.8579V29.6686C8.61688 29.5844 8.36344 29.5213 8.08888 29.5213C7.60313 29.5213 7.30745 29.7106 7.30745 30.0683V30.0894C7.30745 30.384 7.56089 30.5733 7.91993 30.5733C8.46904 30.5523 8.80695 30.2577 8.80695 29.8579Z" fill="#050509"/>
<path d="M10.6444 27.2909H11.7638V27.859C12.0172 27.5224 12.3551 27.2278 12.9253 27.2278C13.7701 27.2278 14.277 27.7959 14.277 28.7007V31.2678H13.1577V29.0374C13.1577 28.5113 12.9042 28.2378 12.4818 28.2378C12.0594 28.2378 11.7849 28.5113 11.7849 29.0374V31.2467H10.6655V27.2909H10.6444Z" fill="#050509"/>
<path d="M14.7838 30.1104C14.7838 29.2267 15.4385 28.8269 16.3889 28.8269C16.7902 28.8269 17.0859 28.89 17.3604 28.9952V28.9321C17.3604 28.4692 17.0647 28.2167 16.5156 28.2167C16.0932 28.2167 15.7764 28.3009 15.4174 28.4271L15.1428 27.5644C15.5864 27.375 16.0088 27.2488 16.6846 27.2488C17.2971 27.2488 17.7406 27.4171 18.0363 27.6907C18.3319 27.9852 18.4586 28.4271 18.4586 28.9531V31.2467H17.3604V30.8258C17.0859 31.1204 16.7057 31.3308 16.1566 31.3308C15.4174 31.3098 14.7838 30.889 14.7838 30.1104ZM17.3815 29.8579V29.6686C17.1915 29.5844 16.938 29.5213 16.6635 29.5213C16.1777 29.5213 15.882 29.7106 15.882 30.0683V30.0894C15.882 30.384 16.1355 30.5733 16.4945 30.5733C17.0225 30.5523 17.3815 30.2577 17.3815 29.8579Z" fill="#050509"/>
<path d="M19.0078 29.2688C19.0078 27.9221 19.8737 27.2067 20.8241 27.2067C21.4155 27.2067 21.7956 27.4802 22.0702 27.7959V25.839H23.1895V31.2467H22.0702V30.6785C21.7956 31.0573 21.4155 31.3308 20.8241 31.3308C19.8948 31.3098 19.0078 30.5944 19.0078 29.2688ZM22.0702 29.2688C22.0702 28.5954 21.6267 28.1536 21.0987 28.1536C20.5707 28.1536 20.1272 28.5744 20.1272 29.2477V29.2688C20.1272 29.9211 20.5707 30.3629 21.0987 30.3629C21.6478 30.3629 22.0702 29.9211 22.0702 29.2688Z" fill="#050509"/>
<path d="M23.7386 30.1104C23.7386 29.2267 24.3934 28.8269 25.3437 28.8269C25.745 28.8269 26.0407 28.89 26.3153 28.9952V28.9321C26.3153 28.4692 26.0196 28.2167 25.4705 28.2167C25.0481 28.2167 24.7313 28.3009 24.3722 28.4271L24.0977 27.5644C24.5412 27.375 24.9636 27.2488 25.6394 27.2488C26.2519 27.2488 26.6954 27.4171 26.9911 27.6907C27.2868 27.9852 27.4135 28.4271 27.4135 28.9531V31.2467H26.3153V30.8258C26.0407 31.1204 25.6605 31.3308 25.1114 31.3308C24.3722 31.3098 23.7386 30.889 23.7386 30.1104ZM26.3364 29.8579V29.6686C26.1463 29.5844 25.8929 29.5213 25.6183 29.5213C25.1326 29.5213 24.8369 29.7106 24.8369 30.0683V30.0894C24.8369 30.384 25.0903 30.5733 25.4493 30.5733C25.9773 30.5523 26.3364 30.2577 26.3364 29.8579Z" fill="#050509"/>
<path d="M30.2858 26.0704H34.2352V27.1015H31.4262V28.1956H33.8972V29.2267H31.4262V31.2256H30.2858V26.0704Z" fill="#050509"/>
<path d="M34.4252 29.2898C34.4252 28.1325 35.3544 27.2067 36.5794 27.2067C37.8043 27.2067 38.7336 28.1115 38.7336 29.2477V29.2687C38.7336 30.405 37.8043 31.3308 36.5794 31.3308C35.3544 31.3308 34.4252 30.426 34.4252 29.2898ZM37.6354 29.2898C37.6354 28.7006 37.213 28.1746 36.5794 28.1746C35.9247 28.1746 35.5445 28.6796 35.5445 29.2477V29.2687C35.5445 29.8579 35.9669 30.3629 36.6005 30.3629C37.2341 30.3629 37.6354 29.8789 37.6354 29.2898Z" fill="#050509"/>
<path d="M39.2616 29.858V27.2909H40.3809V29.5003C40.3809 30.0263 40.6344 30.2998 41.0568 30.2998C41.4792 30.2998 41.7537 30.0263 41.7537 29.5003V27.2909H42.8731V31.2467H41.7537V30.6786C41.5003 31.0153 41.1624 31.3098 40.5921 31.3098C39.7685 31.3098 39.2616 30.7627 39.2616 29.858Z" fill="#050509"/>
<path d="M43.6968 27.2909H44.8161V27.859C45.0696 27.5224 45.4075 27.2278 45.9777 27.2278C46.8225 27.2278 47.3294 27.7959 47.3294 28.7007V31.2678H46.21V29.0374C46.21 28.5113 45.9566 28.2378 45.5342 28.2378C45.1118 28.2378 44.8372 28.5113 44.8372 29.0374V31.2467H43.7179V27.2909H43.6968Z" fill="#050509"/>
<path d="M47.9208 29.2688C47.9208 27.9221 48.7867 27.2067 49.7371 27.2067C50.3284 27.2067 50.7086 27.4802 50.9831 27.7959V25.839H52.1025V31.2467H50.9831V30.6785C50.7086 31.0573 50.3284 31.3308 49.7371 31.3308C48.8078 31.3098 47.9208 30.5944 47.9208 29.2688ZM50.9831 29.2688C50.9831 28.5954 50.5396 28.1536 50.0116 28.1536C49.4836 28.1536 49.0401 28.5744 49.0401 29.2477V29.2688C49.0401 29.9211 49.4836 30.3629 50.0116 30.3629C50.5607 30.3629 50.9831 29.9211 50.9831 29.2688Z" fill="#050509"/>
<path d="M52.6516 30.1104C52.6516 29.2267 53.3063 28.8269 54.2567 28.8269C54.658 28.8269 54.9537 28.89 55.2282 28.9952V28.9321C55.2282 28.4692 54.9325 28.2167 54.3834 28.2167C53.961 28.2167 53.6442 28.3009 53.2852 28.4271L53.0106 27.5644C53.4542 27.375 53.8766 27.2488 54.5524 27.2488C55.1649 27.2488 55.6084 27.4171 55.9041 27.6907C56.1997 27.9852 56.3264 28.4271 56.3264 28.9531V31.2467H55.2282V30.8258C54.9537 31.1204 54.5735 31.3308 54.0244 31.3308C53.2852 31.3098 52.6516 30.889 52.6516 30.1104ZM55.2493 29.8579V29.6686C55.0593 29.5844 54.8058 29.5213 54.5313 29.5213C54.0455 29.5213 53.7498 29.7106 53.7498 30.0683V30.0894C53.7498 30.384 54.0033 30.5733 54.3623 30.5733C54.8903 30.5523 55.2493 30.2577 55.2493 29.8579Z" fill="#050509"/>
<path d="M57.2134 30.1315V28.2588H56.7488V27.2909H57.2134V26.2809H58.3328V27.2909H59.262V28.2588H58.3328V29.9421C58.3328 30.1946 58.4384 30.3209 58.6918 30.3209C58.903 30.3209 59.0931 30.2788 59.2409 30.1736V31.0784C59.0086 31.2256 58.734 31.3098 58.3539 31.3098C57.678 31.3098 57.2134 31.0363 57.2134 30.1315Z" fill="#050509"/>
<path d="M59.8956 25.839H61.0783V26.8279H59.8956V25.839ZM59.9168 27.2909H61.0361V31.2467H59.9168V27.2909Z" fill="#050509"/>
<path d="M61.6274 29.2898C61.6274 28.1325 62.5567 27.2067 63.7817 27.2067C65.0066 27.2067 65.9359 28.1115 65.9359 29.2477V29.2687C65.9359 30.405 65.0066 31.3308 63.7817 31.3308C62.5356 31.3308 61.6274 30.426 61.6274 29.2898ZM64.8165 29.2898C64.8165 28.7006 64.3941 28.1746 63.7605 28.1746C63.1058 28.1746 62.7257 28.6796 62.7257 29.2477V29.2687C62.7257 29.8579 63.1481 30.3629 63.7817 30.3629C64.4364 30.3629 64.8165 29.8789 64.8165 29.2898Z" fill="#050509"/>
<path d="M66.5061 27.2909H67.6255V27.859C67.8789 27.5224 68.2168 27.2278 68.787 27.2278C69.6318 27.2278 70.1387 27.7959 70.1387 28.7007V31.2678H69.0194V29.0374C69.0194 28.5113 68.7659 28.2378 68.3435 28.2378C67.9211 28.2378 67.6466 28.5113 67.6466 29.0374V31.2467H66.5272V27.2909H66.5061Z" fill="#050509"/>
<path d="M1.39396 35.6865H0.929321V34.7606H1.39396V34.5081C1.39396 34.0663 1.49955 33.7506 1.71075 33.5402C1.92195 33.3298 2.21763 33.2246 2.6189 33.2246C2.97794 33.2246 3.21025 33.2667 3.42145 33.3298V34.2556C3.25249 34.1925 3.10465 34.1504 2.91458 34.1504C2.66114 34.1504 2.5133 34.2767 2.5133 34.5713V34.7186H3.42145V35.6444H2.5133V38.6533H1.39396V35.6865Z" fill="#050509"/>
<path d="M3.54822 36.7385C3.54822 35.5812 4.47749 34.6554 5.70243 34.6554C6.92738 34.6554 7.85664 35.5602 7.85664 36.6964V36.7175C7.85664 37.8537 6.92738 38.7795 5.70243 38.7795C4.45637 38.7795 3.54822 37.8748 3.54822 36.7385ZM6.7373 36.7385C6.7373 36.1493 6.3149 35.6233 5.68131 35.6233C5.0266 35.6233 4.64644 36.1283 4.64644 36.6964V36.7175C4.64644 37.3066 5.06884 37.8116 5.70243 37.8116C6.35714 37.8116 6.7373 37.3066 6.7373 36.7385Z" fill="#050509"/>
<path d="M8.42688 34.7186H9.54623V35.5182C9.77854 34.9711 10.1376 34.6134 10.8134 34.6555V35.8338H10.7712C10.032 35.8338 9.56734 36.2757 9.56734 37.2225V38.6954H8.448V34.7186H8.42688Z" fill="#050509"/>
<path d="M13.4956 33.5192H14.6361V38.6954H13.4956V33.5192Z" fill="#050509"/>
<path d="M15.5653 34.7185H16.6847V35.2866C16.9381 34.95 17.276 34.6554 17.8462 34.6554C18.691 34.6554 19.1979 35.2235 19.1979 36.1283V38.6954H18.0786V36.486C18.0786 35.96 17.8251 35.6864 17.4027 35.6864C16.9803 35.6864 16.7058 35.96 16.7058 36.486V38.6954H15.5864V34.7185H15.5653Z" fill="#050509"/>
<path d="M19.9794 34.7185H21.0987V35.2866C21.3522 34.95 21.6901 34.6554 22.2603 34.6554C23.1051 34.6554 23.612 35.2235 23.612 36.1283V38.6954H22.4926V36.486C22.4926 35.96 22.2392 35.6864 21.8168 35.6864C21.3944 35.6864 21.1198 35.96 21.1198 36.486V38.6954H20.0005V34.7185H19.9794Z" fill="#050509"/>
<path d="M24.161 36.7385C24.161 35.5812 25.0903 34.6554 26.3152 34.6554C27.5402 34.6554 28.4694 35.5602 28.4694 36.6964V36.7175C28.4694 37.8537 27.5402 38.7795 26.3152 38.7795C25.0692 38.7795 24.161 37.8748 24.161 36.7385ZM27.3501 36.7385C27.3501 36.1493 26.9277 35.6233 26.2941 35.6233C25.6394 35.6233 25.2592 36.1283 25.2592 36.6964V36.7175C25.2592 37.3066 25.6816 37.8116 26.3152 37.8116C26.9699 37.8116 27.3501 37.3066 27.3501 36.7385Z" fill="#050509"/>
<path d="M28.4695 34.7185H29.6733L30.5603 37.3697L31.4685 34.7185H32.6512L31.0883 38.7164H30.0746L28.4695 34.7185Z" fill="#050509"/>
<path d="M32.6722 37.5592C32.6722 36.6754 33.327 36.2756 34.2773 36.2756C34.6786 36.2756 34.9743 36.3388 35.2488 36.444V36.3808C35.2488 35.9179 34.9532 35.6654 34.4041 35.6654C33.9817 35.6654 33.6649 35.7496 33.3058 35.8758L33.0313 35.0131C33.4748 34.8238 33.8972 34.6975 34.573 34.6975C35.1855 34.6975 35.629 34.8658 35.9247 35.1394C36.2204 35.434 36.3471 35.8758 36.3471 36.4019V38.6954H35.2488V38.2746C34.9743 38.5692 34.5941 38.7796 34.045 38.7796C33.2847 38.7585 32.6722 38.3377 32.6722 37.5592ZM35.2488 37.2856V37.0962C35.0588 37.0121 34.8053 36.949 34.5308 36.949C34.045 36.949 33.7493 37.1383 33.7493 37.496V37.5171C33.7493 37.8117 34.0028 38.001 34.3618 38.001C34.8898 37.98 35.2488 37.7065 35.2488 37.2856Z" fill="#050509"/>
<path d="M37.213 37.5591V35.6864H36.7484V34.7185H37.213V33.7085H38.3324V34.7185H39.2617V35.6864H38.3324V37.3697C38.3324 37.6222 38.438 37.7485 38.6914 37.7485C38.9026 37.7485 39.0927 37.7064 39.2405 37.6012V38.506C39.0082 38.6533 38.7337 38.7374 38.3535 38.7374C37.6777 38.7585 37.213 38.4849 37.213 37.5591Z" fill="#050509"/>
<path d="M39.8953 33.2877H41.078V34.2767H39.8953V33.2877ZM39.9164 34.7185H41.0357V38.6744H39.9164V34.7185Z" fill="#050509"/>
<path d="M41.6271 36.7385C41.6271 35.5812 42.5563 34.6554 43.7813 34.6554C45.0062 34.6554 45.9355 35.5602 45.9355 36.6964V36.7175C45.9355 37.8537 45.0062 38.7795 43.7813 38.7795C42.5352 38.7795 41.6271 37.8748 41.6271 36.7385ZM44.8162 36.7385C44.8162 36.1493 44.3938 35.6233 43.7602 35.6233C43.1055 35.6233 42.7253 36.1283 42.7253 36.6964V36.7175C42.7253 37.3066 43.1477 37.8116 43.7813 37.8116C44.436 37.8116 44.8162 37.3066 44.8162 36.7385Z" fill="#050509"/>
<path d="M46.5057 34.7185H47.6251V35.2866C47.8785 34.95 48.2164 34.6554 48.7867 34.6554C49.6315 34.6554 50.1383 35.2235 50.1383 36.1283V38.6954H49.019V36.486C49.019 35.96 48.7655 35.6864 48.3432 35.6864C47.9208 35.6864 47.6462 35.96 47.6462 36.486V38.6954H46.5269V34.7185H46.5057Z" fill="#050509"/>
<path d="M81.3322 25.8601H85.2815V26.8911H82.4726V27.9853H84.9436V29.0163H82.4726V31.0153H81.3322V25.8601Z" fill="#050509"/>
<path d="M85.4928 29.0795C85.4928 27.9222 86.4221 26.9963 87.647 26.9963C88.872 26.9963 89.8012 27.9011 89.8012 29.0374V29.0584C89.8012 30.1947 88.872 31.1205 87.647 31.1205C86.4009 31.1415 85.4928 30.2157 85.4928 29.0795ZM88.6819 29.0795C88.6819 28.4903 88.2595 27.9642 87.6259 27.9642C86.9712 27.9642 86.591 28.4692 86.591 29.0374V29.0584C86.591 29.6476 87.0134 30.1526 87.647 30.1526C88.3017 30.1736 88.6819 29.6686 88.6819 29.0795Z" fill="#050509"/>
<path d="M90.3715 27.0805H91.4908V27.6486C91.7442 27.3119 92.0822 27.0173 92.6524 27.0173C93.4972 27.0173 94.0041 27.5855 94.0041 28.4902V31.0573H92.8847V28.8269C92.8847 28.3009 92.6313 28.0273 92.2089 28.0273C91.7865 28.0273 91.5119 28.3009 91.5119 28.8269V31.0363H90.3926V27.0805H90.3715Z" fill="#050509"/>
<path d="M94.5953 29.0794C94.5953 27.7328 95.4612 27.0174 96.4116 27.0174C97.003 27.0174 97.3831 27.2909 97.6577 27.6065V25.6497H98.777V31.0573H97.6577V30.4892C97.3831 30.868 97.003 31.1415 96.4116 31.1415C95.4824 31.1205 94.5953 30.384 94.5953 29.0794ZM97.6577 29.0794C97.6577 28.4061 97.2142 27.9642 96.6862 27.9642C96.1582 27.9642 95.7147 28.3851 95.7147 29.0584V29.0794C95.7147 29.7317 96.1582 30.1736 96.6862 30.1736C97.2142 30.1736 97.6577 29.7317 97.6577 29.0794Z" fill="#050509"/>
<path d="M99.3262 29.9001C99.3262 29.0164 99.9809 28.6166 100.931 28.6166C101.333 28.6166 101.628 28.6797 101.903 28.7849V28.7218C101.903 28.2589 101.607 28.0064 101.058 28.0064C100.636 28.0064 100.319 28.0905 99.9598 28.2168L99.6852 27.3541C100.129 27.1647 100.551 27.0385 101.227 27.0385C101.839 27.0385 102.283 27.2068 102.579 27.4803C102.874 27.7749 103.001 28.2168 103.001 28.7428V31.0363H101.903V30.6155C101.628 30.9101 101.248 31.1205 100.699 31.1205C99.9386 31.1205 99.3262 30.6786 99.3262 29.9001ZM101.924 29.6476V29.4582C101.734 29.3741 101.48 29.3109 101.206 29.3109C100.72 29.3109 100.424 29.5003 100.424 29.858V29.8791C100.424 30.1736 100.678 30.363 101.037 30.363C101.565 30.342 101.924 30.0474 101.924 29.6476Z" fill="#050509"/>
<path d="M103.867 29.921V28.0483H103.402V27.0804H103.867V26.0704H104.986V27.0804H105.916V28.0483H104.986V29.7317C104.986 29.9842 105.092 30.1104 105.345 30.1104C105.557 30.1104 105.747 30.0683 105.894 29.9631V30.8679C105.662 31.0152 105.388 31.0994 105.007 31.0994C104.332 31.1204 103.867 30.8469 103.867 29.921Z" fill="#050509"/>
<path d="M106.549 25.6497H107.732V26.6386H106.549V25.6497ZM106.591 27.0805H107.711V31.0363H106.591V27.0805Z" fill="#050509"/>
<path d="M108.281 29.0795C108.281 27.9222 109.21 26.9963 110.435 26.9963C111.66 26.9963 112.589 27.9011 112.589 29.0374V29.0584C112.589 30.1947 111.66 31.1205 110.435 31.1205C109.21 31.1415 108.281 30.2157 108.281 29.0795ZM111.491 29.0795C111.491 28.4903 111.069 27.9642 110.435 27.9642C109.781 27.9642 109.4 28.4692 109.4 29.0374V29.0584C109.4 29.6476 109.823 30.1526 110.456 30.1526C111.09 30.1736 111.491 29.6686 111.491 29.0795Z" fill="#050509"/>
<path d="M113.181 27.0805H114.3V27.6486C114.553 27.3119 114.891 27.0173 115.462 27.0173C116.306 27.0173 116.813 27.5855 116.813 28.4902V31.0573H115.694V28.8269C115.694 28.3009 115.44 28.0273 115.018 28.0273C114.596 28.0273 114.321 28.3009 114.321 28.8269V31.0363H113.202V27.0805H113.181Z" fill="#050509"/>
<path d="M119.39 29.0795C119.39 27.9432 120.256 26.9963 121.481 26.9963C122.22 26.9963 122.706 27.2488 123.065 27.6697L122.368 28.4061C122.114 28.1326 121.861 27.9642 121.46 27.9642C120.889 27.9642 120.488 28.4692 120.488 29.0374V29.0584C120.488 29.6686 120.889 30.1526 121.502 30.1526C121.882 30.1526 122.135 29.9842 122.41 29.7317L123.065 30.4051C122.685 30.8259 122.241 31.1205 121.439 31.1205C120.256 31.1415 119.39 30.2157 119.39 29.0795Z" fill="#050509"/>
<path d="M123.339 29.9001C123.339 29.0164 123.994 28.6166 124.944 28.6166C125.346 28.6166 125.641 28.6797 125.916 28.7849V28.7218C125.916 28.2589 125.62 28.0064 125.071 28.0064C124.649 28.0064 124.332 28.0905 123.973 28.2168L123.698 27.3541C124.142 27.1647 124.564 27.0385 125.24 27.0385C125.853 27.0385 126.296 27.2068 126.592 27.4803C126.887 27.7749 127.014 28.2168 127.014 28.7428V31.0363H125.916V30.6155C125.641 30.9101 125.261 31.1205 124.712 31.1205C123.952 31.1205 123.339 30.6786 123.339 29.9001ZM125.916 29.6476V29.4582C125.726 29.3741 125.472 29.3109 125.198 29.3109C124.712 29.3109 124.416 29.5003 124.416 29.858V29.8791C124.416 30.1736 124.67 30.363 125.029 30.363C125.557 30.342 125.916 30.0474 125.916 29.6476Z" fill="#050509"/>
<path d="M127.753 27.0805H128.873V27.6486C129.126 27.3119 129.464 27.0173 130.034 27.0173C130.879 27.0173 131.386 27.5855 131.386 28.4902V31.0573H130.267V28.8269C130.267 28.3009 130.013 28.0273 129.591 28.0273C129.168 28.0273 128.894 28.3009 128.894 28.8269V31.0363H127.774V27.0805H127.753Z" fill="#050509"/>
<path d="M131.893 29.9001C131.893 29.0164 132.548 28.6166 133.498 28.6166C133.899 28.6166 134.195 28.6797 134.469 28.7849V28.7218C134.469 28.2589 134.174 28.0064 133.625 28.0064C133.202 28.0064 132.885 28.0905 132.526 28.2168L132.252 27.3541C132.695 27.1647 133.118 27.0385 133.794 27.0385C134.406 27.0385 134.85 27.2068 135.145 27.4803C135.441 27.7749 135.568 28.2168 135.568 28.7428V31.0363H134.469V30.6155C134.195 30.9101 133.815 31.1205 133.266 31.1205C132.505 31.1205 131.893 30.6786 131.893 29.9001ZM134.491 29.6476V29.4582C134.3 29.3741 134.047 29.3109 133.772 29.3109C133.287 29.3109 132.991 29.5003 132.991 29.858V29.8791C132.991 30.1736 133.244 30.363 133.604 30.363C134.132 30.342 134.491 30.0474 134.491 29.6476Z" fill="#050509"/>
<path d="M136.117 29.0794C136.117 27.7328 136.983 27.0174 137.933 27.0174C138.524 27.0174 138.905 27.2909 139.179 27.6065V25.6497H140.298V31.0573H139.179V30.4892C138.905 30.868 138.524 31.1415 137.933 31.1415C137.004 31.1205 136.117 30.384 136.117 29.0794ZM139.179 29.0794C139.179 28.4061 138.736 27.9642 138.208 27.9642C137.68 27.9642 137.236 28.3851 137.236 29.0584V29.0794C137.236 29.7317 137.68 30.1736 138.208 30.1736C138.736 30.1736 139.179 29.7317 139.179 29.0794Z" fill="#050509"/>
<path d="M141.08 25.6497H142.263V26.6386H141.08V25.6497ZM141.122 27.0805H142.241V31.0363H141.122V27.0805Z" fill="#050509"/>
<path d="M142.833 29.0795C142.833 27.9432 143.635 26.9963 144.797 26.9963C146.127 26.9963 146.74 28.0274 146.74 29.1426C146.74 29.2267 146.74 29.3319 146.719 29.4372H143.952C144.058 29.9422 144.417 30.2157 144.924 30.2157C145.304 30.2157 145.578 30.0894 145.895 29.8159L146.55 30.384C146.17 30.8469 145.642 31.1205 144.924 31.1205C143.72 31.1415 142.833 30.2999 142.833 29.0795ZM145.642 28.7428C145.578 28.2378 145.283 27.9011 144.797 27.9011C144.332 27.9011 144.015 28.2378 143.931 28.7428H145.642Z" fill="#050509"/>
<path d="M147.331 27.0805H148.451V27.6486C148.704 27.3119 149.042 27.0173 149.612 27.0173C150.457 27.0173 150.964 27.5855 150.964 28.4902V31.0573H149.845V28.8269C149.845 28.3009 149.591 28.0273 149.169 28.0273C148.746 28.0273 148.472 28.3009 148.472 28.8269V31.0363H147.352V27.0805H147.331Z" fill="#050509"/>
<path d="M151.745 27.0805H152.865V27.6486C153.118 27.3119 153.456 27.0173 154.026 27.0173C154.871 27.0173 155.378 27.5855 155.378 28.4902V31.0573H154.259V28.8269C154.259 28.3009 154.005 28.0273 153.583 28.0273C153.16 28.0273 152.886 28.3009 152.886 28.8269V31.0363H151.766V27.0805H151.745Z" fill="#050509"/>
<path d="M155.948 29.0795C155.948 27.9432 156.751 26.9963 157.912 26.9963C159.243 26.9963 159.855 28.0274 159.855 29.1426C159.855 29.2267 159.855 29.3319 159.834 29.4372H157.068C157.173 29.9422 157.532 30.2157 158.039 30.2157C158.419 30.2157 158.694 30.0894 159.011 29.8159L159.665 30.384C159.285 30.8469 158.757 31.1205 158.039 31.1205C156.814 31.1415 155.948 30.2999 155.948 29.0795ZM158.736 28.7428C158.673 28.2378 158.377 27.9011 157.891 27.9011C157.427 27.9011 157.11 28.2378 157.025 28.7428H158.736Z" fill="#050509"/>
<path d="M81.2054 34.5292H82.3248V35.0974C82.5993 34.7186 82.9795 34.4451 83.5709 34.4451C84.5001 34.4451 85.3871 35.1605 85.3871 36.4861V36.5071C85.3871 37.8328 84.5212 38.5482 83.5709 38.5482C82.9795 38.5482 82.5993 38.2746 82.3248 37.959V39.6634H81.2054V34.5292ZM84.2678 36.5071C84.2678 35.8338 83.8243 35.3919 83.2963 35.3919C82.7683 35.3919 82.3248 35.8338 82.3248 36.4861V36.5071C82.3248 37.1594 82.7683 37.6013 83.2963 37.6013C83.8243 37.6013 84.2678 37.1805 84.2678 36.5071Z" fill="#050509"/>
<path d="M85.7885 36.5282C85.7885 35.3709 86.7177 34.4451 87.9427 34.4451C89.1676 34.4451 90.0969 35.3499 90.0969 36.4861V36.5071C90.0969 37.6434 89.1676 38.5692 87.9427 38.5692C86.6966 38.5692 85.7885 37.6644 85.7885 36.5282ZM88.9775 36.5282C88.9775 35.939 88.5551 35.413 87.9215 35.413C87.2668 35.413 86.8867 35.918 86.8867 36.4861V36.5071C86.8867 37.0963 87.3091 37.6013 87.9427 37.6013C88.5974 37.6013 88.9775 37.1173 88.9775 36.5282Z" fill="#050509"/>
<path d="M90.6249 37.0962V34.5292H91.7442V36.7385C91.7442 37.2646 91.9977 37.5381 92.4201 37.5381C92.8425 37.5381 93.117 37.2646 93.117 36.7385V34.5292H94.2364V38.485H93.1381V37.9169C92.8847 38.2535 92.5468 38.5481 91.9765 38.5481C91.1106 38.5692 90.6249 38.001 90.6249 37.0962Z" fill="#050509"/>
<path d="M95.0599 34.5292H96.1793V35.3288C96.4116 34.7817 96.7706 34.424 97.4465 34.4661V35.6444H97.3831C96.6439 35.6444 96.1793 36.0863 96.1793 37.0332V38.5061H95.0599V34.5292Z" fill="#050509"/>
<path d="M100.002 33.0984H101.121V38.5061H100.002V33.0984Z" fill="#050509"/>
<path d="M101.713 35.2236C102.22 35.1815 102.473 34.908 102.431 34.4872H101.966V33.3088H103.17V34.2978C103.17 35.2657 102.684 35.6655 101.797 35.6865L101.713 35.2236Z" fill="#050509"/>
<path d="M103.846 33.0984H105.029V34.0873H103.846V33.0984ZM103.888 34.5292H105.007V38.485H103.888V34.5292Z" fill="#050509"/>
<path d="M105.81 34.5292H106.929V35.0973C107.183 34.7606 107.521 34.4661 108.091 34.4661C108.936 34.4661 109.443 35.0342 109.443 35.939V38.506H108.323V36.2967C108.323 35.7706 108.07 35.4971 107.647 35.4971C107.225 35.4971 106.95 35.7706 106.95 36.2967V38.506H105.81V34.5292Z" fill="#050509"/>
<path d="M110.224 34.5292H111.343V35.0973C111.597 34.7606 111.935 34.4661 112.505 34.4661C113.35 34.4661 113.857 35.0342 113.857 35.939V38.506H112.737V36.2967C112.737 35.7706 112.484 35.4971 112.061 35.4971C111.639 35.4971 111.364 35.7706 111.364 36.2967V38.506H110.245V34.5292H110.224Z" fill="#050509"/>
<path d="M114.427 36.5282C114.427 35.3709 115.356 34.4451 116.581 34.4451C117.806 34.4451 118.735 35.3499 118.735 36.4861V36.5071C118.735 37.6434 117.806 38.5692 116.581 38.5692C115.335 38.5692 114.427 37.6644 114.427 36.5282ZM117.616 36.5282C117.616 35.939 117.193 35.413 116.56 35.413C115.905 35.413 115.525 35.918 115.525 36.4861V36.5071C115.525 37.0963 115.947 37.6013 116.581 37.6013C117.215 37.6013 117.616 37.1173 117.616 36.5282Z" fill="#050509"/>
<path d="M118.714 34.5292H119.918L120.805 37.1804L121.713 34.5292H122.896L121.333 38.5271H120.319L118.714 34.5292Z" fill="#050509"/>
<path d="M122.917 37.3487C122.917 36.465 123.572 36.0652 124.522 36.0652C124.923 36.0652 125.219 36.1283 125.493 36.2335V36.1704C125.493 35.7075 125.198 35.455 124.649 35.455C124.226 35.455 123.909 35.5391 123.55 35.6654L123.276 34.8027C123.719 34.6133 124.142 34.4871 124.818 34.4871C125.43 34.4871 125.874 34.6554 126.169 34.9289C126.465 35.2235 126.592 35.6654 126.592 36.1914V38.485H125.493V38.0641C125.219 38.3587 124.839 38.5691 124.29 38.5691C123.529 38.5691 122.917 38.1273 122.917 37.3487ZM125.515 37.0962V36.9068C125.325 36.8227 125.071 36.7595 124.797 36.7595C124.311 36.7595 124.015 36.9489 124.015 37.3066V37.3277C124.015 37.6223 124.269 37.8116 124.628 37.8116C125.156 37.7906 125.515 37.496 125.515 37.0962Z" fill="#050509"/>
<path d="M127.458 37.3698V35.4971H126.993V34.5292H127.458V33.5192H128.577V34.5292H129.506V35.4971H128.577V37.1804C128.577 37.4329 128.683 37.5591 128.936 37.5591C129.147 37.5591 129.337 37.5171 129.485 37.4119V38.3166C129.253 38.4639 128.978 38.5481 128.598 38.5481C127.922 38.5481 127.458 38.2746 127.458 37.3698Z" fill="#050509"/>
<path d="M130.161 33.0984H131.344V34.0873H130.161V33.0984ZM130.182 34.5292H131.301V38.485H130.182V34.5292Z" fill="#050509"/>
<path d="M131.893 36.5282C131.893 35.3709 132.822 34.4451 134.047 34.4451C135.272 34.4451 136.201 35.3499 136.201 36.4861V36.5071C136.201 37.6434 135.272 38.5692 134.047 38.5692C132.801 38.5692 131.893 37.6644 131.893 36.5282ZM135.082 36.5282C135.082 35.939 134.66 35.413 134.026 35.413C133.371 35.413 132.991 35.918 132.991 36.4861V36.5071C132.991 37.0963 133.413 37.6013 134.047 37.6013C134.681 37.6013 135.082 37.1173 135.082 36.5282Z" fill="#050509"/>
<path d="M136.771 34.5292H137.891V35.0973C138.144 34.7606 138.482 34.4661 139.052 34.4661C139.897 34.4661 140.404 35.0342 140.404 35.939V38.506H139.285V36.2967C139.285 35.7706 139.031 35.4971 138.609 35.4971C138.187 35.4971 137.912 35.7706 137.912 36.2967V38.506H136.793V34.5292H136.771Z" fill="#050509"/>
<defs>
<linearGradient id="paint0_linear_1111_4341" x1="63.4408" y1="9.96862" x2="49.763" y2="18.3252" gradientUnits="userSpaceOnUse">
<stop stop-color="#E83829"/>
<stop offset="1" stop-color="#630832"/>
</linearGradient>
<linearGradient id="paint1_linear_1111_4341" x1="50.189" y1="13.7968" x2="60.8823" y2="4.85265" gradientUnits="userSpaceOnUse">
<stop offset="0.00043631" stop-color="#E83829"/>
<stop offset="1" stop-color="#630832"/>
</linearGradient>
</defs>
</svg>
