<svg width="103" height="62" viewBox="0 0 103 62" fill="none" xmlns="http://www.w3.org/2000/svg">
<g clip-path="url(#clip0_1111_4320)">
<path d="M19.679 57.9417C19.679 58.5774 19.7275 59.213 19.7275 59.8487L19.679 59.9464C18.7096 60.2398 17.8856 60.5332 16.4799 60.5332C15.6559 60.5332 15.0743 60.3865 14.638 60.2887C14.1049 60.142 13.087 59.7998 12.3115 58.7729C11.6813 57.9906 11.342 56.866 11.342 55.5947C11.342 54.6657 11.5359 53.5411 12.0206 52.7099C13.087 50.8518 14.7835 50.4117 16.3345 50.4117C17.7402 50.4117 18.6611 50.8029 19.2427 51.0474L19.2912 51.1452C19.1943 51.9764 19.1458 52.172 19.0973 53.0521L19.0004 53.101C18.3703 52.661 17.7402 52.2698 16.7223 52.2698C15.0258 52.2698 13.8625 53.4433 13.8625 55.6436C13.8625 56.6704 14.2503 58.724 16.3345 58.724C16.7223 58.724 17.0131 58.6752 17.3524 58.5774C17.4009 57.3061 17.3524 57.0127 17.2555 55.6436L17.3039 55.5458L19.6305 55.4969L19.679 55.5947C19.679 56.2793 19.6305 56.9638 19.6305 57.6483V57.9417" fill="#013A81"/>
<path d="M34.1717 60.3866C33.1538 60.3866 32.9115 60.3866 32.039 60.4355L31.9421 60.3377C31.9421 59.8976 31.9421 59.4087 31.9421 58.9686C31.9421 58.4797 31.9421 56.6705 31.8936 56.2305C31.8451 55.7415 31.7966 55.0081 31.0696 55.0081C30.6333 55.0081 30.3425 55.2525 30.0517 55.3992C30.0517 57.7462 30.1002 58.2352 30.1486 60.2888L30.0517 60.3866C29.0338 60.3866 28.7915 60.3866 27.8705 60.4355L27.7736 60.3377C27.7736 59.5065 27.8221 58.6753 27.8221 57.844C27.8221 55.6926 27.7251 54.8614 27.6282 53.7368L27.7251 53.639C28.6945 53.4923 28.9369 53.4923 29.9063 53.2478L30.0517 53.3456L30.0032 54.079C30.5849 53.7368 31.3119 53.2967 32.0875 53.2967C32.5722 53.2967 33.2992 53.3945 33.687 54.079C34.0263 54.6169 34.0263 55.2036 34.0263 56.4749V57.5017C34.0748 58.773 34.0748 59.1642 34.1232 60.2888L34.1717 60.3866Z" fill="#013A81"/>
<path d="M42.1209 56.8661C42.1209 56.3771 42.1209 54.2257 40.279 53.4923C39.6974 53.2478 39.0188 53.2478 38.6795 53.2478C36.4014 53.2478 35.1411 54.4702 35.1411 56.8661C35.1411 57.6973 35.2865 58.5775 35.7712 59.262C36.1105 59.751 36.7406 60.4844 38.5825 60.4844C41.3938 60.5333 42.1209 58.8708 42.1209 56.8661ZM39.8428 56.8661C39.8428 57.9418 39.6974 59.1153 38.631 59.1153C38.2917 59.1153 38.0493 58.9686 37.9039 58.8219C37.6616 58.5775 37.4192 58.1374 37.4192 56.8661C37.4192 56.4749 37.4192 55.6437 37.6616 55.2036C37.8555 54.8614 38.1948 54.6169 38.631 54.6169C38.9703 54.6169 39.3096 54.8125 39.455 55.0081C39.7943 55.3992 39.8428 56.1816 39.8428 56.8661Z" fill="#013A81"/>
<path d="M53.1723 60.3866C52.2513 60.3866 51.9605 60.3866 50.9911 60.4355L50.8941 60.3377C50.8941 59.9465 50.9426 57.9907 50.9426 57.5506C50.9426 57.3062 50.9426 57.0617 50.9426 56.8172C50.9426 55.6926 50.8457 54.9592 50.0701 54.9592C49.6824 54.9592 49.3916 55.1547 49.1492 55.3014V56.6216V57.1106C49.1492 58.6753 49.1977 59.0664 49.2461 60.2888L49.1492 60.3866C48.2767 60.3866 47.9859 60.3866 46.968 60.4355L46.8711 60.3377C46.9196 59.262 46.9196 58.9686 46.9196 57.0617C46.9196 55.9371 46.8711 55.0081 46.0956 55.0081C45.7563 55.0081 45.4654 55.1547 45.2231 55.3992C45.2231 57.6973 45.2716 58.2841 45.32 60.2888L45.2231 60.3866C44.1567 60.3866 43.8659 60.3866 43.0419 60.4355L42.9934 60.3377C42.9934 59.6043 42.9934 58.8219 42.9934 58.0885C42.9934 55.497 42.8965 54.7636 42.7996 53.7368L42.8965 53.639C43.8174 53.4923 44.1083 53.4434 45.1261 53.2478L45.2231 53.3456V54.079C45.8047 53.639 46.3864 53.2478 47.2589 53.2478C48.2767 53.2478 48.616 53.7857 48.8099 54.079C49.3431 53.6879 50.0217 53.2478 51.088 53.2478C51.2819 53.2478 52.2029 53.2478 52.6876 53.9812C53.0753 54.5191 53.0753 55.3503 53.0269 56.2305V57.2084C53.0269 58.6752 53.0269 59.0175 53.1238 60.2399L53.1723 60.3866Z" fill="#013A81"/>
<path d="M60.2489 58.4307C59.7642 58.6752 59.1825 59.0174 58.2131 59.0174C57.4376 59.0174 56.9044 58.773 56.5651 58.284C56.3712 57.9906 56.3228 57.7462 56.2743 57.5017L60.4912 57.4039L60.5882 57.3061C60.5882 56.6704 60.5397 55.9859 60.3943 55.3503C59.9581 53.7856 58.9402 53.4922 58.5039 53.3944C58.1647 53.2966 57.8738 53.2966 57.583 53.2966C55.5472 53.2966 54.1901 54.6657 54.1901 56.9149C54.1901 57.5506 54.287 58.1862 54.4809 58.6263C55.2564 60.3865 57.0014 60.5332 57.9223 60.5332C58.9887 60.5332 59.4734 60.3376 60.1519 60.0443L60.2489 59.9465L60.3458 58.4796L60.2489 58.4307ZM56.3228 56.0837C56.3712 55.6925 56.4682 55.1058 56.9529 54.8124C57.0983 54.7146 57.2922 54.6657 57.4861 54.6657C57.9223 54.6657 58.1647 54.9102 58.3101 55.1058C58.5039 55.3992 58.5039 55.6925 58.5039 56.0348L56.3228 56.0837Z" fill="#013A81"/>
<path d="M26.9496 57.3061C26.9496 56.6704 26.9496 55.937 26.7558 55.448C26.6104 55.0568 25.8833 54.03 24.1868 54.6657C24.1868 54.6657 24.1384 54.6657 24.1384 54.7146C24.0899 54.7635 24.1384 54.7635 24.1384 54.7635C24.5746 54.9591 24.8654 55.3013 24.8654 55.9859L22.6842 56.0348C22.6842 56.0348 22.5873 55.5458 22.8781 54.9591C23.1205 54.4701 23.7021 53.7367 24.9139 53.4922C25.3986 53.3944 25.4955 53.4922 25.544 53.4433C25.544 53.4433 25.5925 53.3944 25.544 53.3944C25.544 53.3944 25.4955 53.3455 25.3986 53.3455C25.2047 53.2966 24.72 53.1499 23.8475 53.1499C21.8118 53.1499 20.4546 54.5679 20.4546 56.8171C20.4546 57.4527 20.5515 58.0884 20.7454 58.5285C21.5209 60.2887 23.2659 60.4354 24.1868 60.4354C25.2532 60.4354 25.7379 60.2398 26.4165 59.9464L26.5134 59.8486L26.6104 58.3818L26.5134 58.3329C26.0287 58.5774 25.4471 58.9196 24.4776 58.9196C23.7021 58.9196 23.1689 58.6751 22.8781 58.1862C22.6842 57.8928 22.6358 57.6483 22.5873 57.4038L26.8042 57.3061H26.9496Z" fill="#013A81"/>
<path d="M10.1303 38.7746C9.79101 38.6768 9.06396 38.4323 8.3369 38.1389C6.39807 37.3077 4.55619 36.1831 4.60466 34.2273C4.65313 32.3692 6.3496 31.1957 9.40325 30.609C12.7477 29.9244 17.6917 29.4355 20.1637 28.1642C22.6357 27.0396 22.3934 24.2036 20.8908 22.8345C20.7454 22.6878 20.6484 22.59 20.5515 22.6389C20.4545 22.6878 20.4545 22.7856 20.503 22.9323C20.6484 23.3235 20.7938 24.0569 20.4545 24.6437C19.2428 26.7951 12.5538 26.7462 6.6889 27.9197C1.89031 28.8487 -0.0969866 31.1957 -4.53894e-05 33.6894C0.0968958 36.3298 2.61737 38.3345 6.10725 38.8724C7.5129 39.068 9.40325 39.1658 10.0334 39.068C10.2272 39.0191 10.2757 38.9702 10.2757 38.8724C10.2757 38.8724 10.2272 38.8235 10.1303 38.7746Z" fill="#0C95D3"/>
<path d="M3.2475 27.4307C4.36232 27.0396 5.86491 26.6484 8.38538 26.2572C8.72467 26.2084 9.11244 26.1595 9.30632 26.1106C9.40326 26.1106 9.45173 26.0617 9.45173 26.0128C9.5002 25.915 9.45173 25.8661 9.25785 25.8172C9.06397 25.7683 8.6762 25.7194 8.43385 25.6216C5.7195 24.986 5.33173 24.1547 5.28326 23.3235C5.28326 22.8345 5.47714 22.3456 6.05879 21.9544C6.83432 21.4166 8.09456 21.1232 8.87008 20.9765C14.1049 19.8519 21.9571 19.7052 21.9571 12.5664C21.9571 9.73043 20.2122 7.92128 18.6611 6.94337C17.5463 6.20993 16.48 6.01434 16.48 6.01434V8.80141C16.48 8.80141 18.128 9.92602 18.128 12.0774C18.128 14.5222 17.1586 17.1626 11.6814 18.2872C8.23997 19.0207 5.76797 19.5096 4.02303 20.2431C2.27808 20.9765 1.16326 22.3945 1.01785 23.6658C0.920908 24.8393 1.21173 26.355 3.2475 27.4307Z" fill="#013A81"/>
<path d="M20.4546 29.4844C19.3883 29.9733 18.0795 30.4134 15.9468 30.8535C15.4137 30.9513 15.0259 31.0001 14.832 31.049C14.6381 31.0979 14.5897 31.1468 14.6381 31.2446C14.6866 31.2935 14.7351 31.3424 14.8805 31.3913C15.1228 31.4402 15.5591 31.538 16.0438 31.6847C17.2555 32.0759 18.0311 32.5648 18.4673 33.0538C18.9035 33.5427 19.0974 34.1784 19.0974 34.8629C19.0974 35.6942 18.8551 36.4276 18.3219 37.0632C17.5948 37.8456 16.4315 38.4812 14.7351 39.0191C13.9111 39.2636 12.7963 39.508 11.4875 39.6058V41.855C14.7835 41.6595 18.0311 40.8771 19.8245 39.6547C21.9087 38.2856 22.9266 36.4765 22.9266 34.2273C22.9266 32.9071 22.5388 31.7336 21.8118 30.7557C21.3755 30.12 20.8908 29.7778 20.4546 29.4844Z" fill="#013A81"/>
<path d="M6.10723 18.0916C7.22205 17.7493 10.1788 17.1137 10.1788 17.1137C10.2272 17.1137 10.3242 17.0648 10.3242 17.0159C10.3242 16.967 10.3242 16.8692 10.2272 16.8692C10.1303 16.8203 9.1124 16.6247 8.14299 15.9891C6.83428 15.109 5.8164 13.8377 5.86487 11.9796C5.96181 9.48593 7.99758 7.92126 10.3242 7.18782C12.4569 6.55217 14.3957 6.2588 15.559 5.47646C17.8371 4.00959 17.5948 1.5159 16.3345 0.293499C16.1406 0.146812 16.0437 0.000123858 15.9468 0.0490198C15.8498 0.0979157 15.8498 0.195707 15.8983 0.342395C15.9952 0.635771 16.286 1.36921 15.9468 2.05375C15.3166 3.27615 11.8268 3.71621 9.20934 4.25407C7.99758 4.49855 6.9797 4.84082 6.10723 5.18309C4.45923 5.86763 3.3444 6.74776 2.42346 7.87236C1.59946 8.89918 1.06628 10.415 1.06628 11.9307C1.06628 15.3534 3.6837 17.1626 6.10723 18.0916Z" fill="#0C95D3"/>
<path d="M66.5501 60.7288C68.1011 61.2666 68.4404 61.4133 69.7491 62.0001L69.8945 61.9512L70.4277 61.3644L70.3792 61.2666C69.2159 60.9244 68.8767 60.8266 67.4225 60.3376C68.0042 60.0931 68.4889 59.8487 69.0705 59.0174C69.7491 58.0395 70.0399 56.866 70.0399 55.6925C70.0399 54.5679 69.7976 52.8076 68.5374 51.7319C67.8103 51.0963 66.7924 50.8518 65.9199 50.8518C65.6291 50.8518 65.2898 50.9007 64.999 50.9496C64.272 51.0963 63.2541 51.3897 62.527 52.5143C61.8 53.5411 61.6545 55.008 61.6545 55.7414C61.6545 59.1152 63.5934 60.2887 64.999 60.4843C65.3383 60.5332 65.6291 60.5332 65.9684 60.5332L66.5501 60.7288ZM69.119 55.7414C69.119 56.6215 68.9736 57.795 68.3435 58.6263C68.1011 58.9685 67.471 59.8975 65.823 59.8975C64.7567 59.8975 63.8842 59.5064 63.3025 58.6263C62.6724 57.7461 62.527 56.4748 62.527 55.6925C62.527 54.2256 63.0602 52.8565 63.8842 52.2209C64.272 51.9275 64.9505 51.5852 65.9199 51.5852C67.5679 51.5852 68.6828 52.5143 69.0221 54.2745C69.0705 54.7635 69.119 55.2524 69.119 55.7414Z" fill="#013A81"/>
<path d="M76.4381 60.3376L75.711 60.3865L75.6141 60.2887L75.6626 59.6531C75.3717 59.9464 74.7416 60.4843 73.4329 60.4843C73.1906 60.4843 72.3666 60.4843 71.7849 59.8487C71.2517 59.2619 71.2517 58.5285 71.2033 57.8928V55.2524C71.2033 54.7146 71.2033 54.4212 71.1548 53.6389L71.2517 53.5411L72.0273 53.4922L72.1242 53.59C72.0757 54.8613 72.0757 56.0837 72.0757 57.355C72.0757 58.4307 72.1242 58.9196 72.4635 59.3108C72.7058 59.6042 73.1421 59.7998 73.6268 59.7998C73.8207 59.7998 73.9661 59.7509 74.16 59.7509C74.887 59.6042 75.2748 59.2619 75.6626 58.9685C75.6626 56.3281 75.6626 55.7903 75.5656 53.6878L75.6626 53.59C76.0503 53.59 76.0988 53.59 76.4381 53.5411L76.535 53.6389C76.535 54.4701 76.4866 55.2524 76.4866 56.0837C76.4866 57.795 76.535 58.7729 76.5835 60.2887L76.4381 60.3376Z" fill="#013A81"/>
<path d="M83.4178 56.8172C83.4178 56.1326 83.3693 55.2525 82.7877 54.4702C82.206 53.6878 81.4305 53.4923 80.6065 53.4923C78.6677 53.4923 77.5529 54.9591 77.5529 57.0128C77.5529 59.0175 78.7162 60.5333 80.8489 60.5333C81.9637 60.5333 82.5453 60.191 83.0785 59.8976L83.127 59.7509L83.1755 59.0175L83.0785 58.9686C82.7877 59.262 82.1091 59.8487 80.8973 59.8487C80.3157 59.8487 79.2493 59.6531 78.6677 58.4307C78.4253 57.844 78.3769 57.4039 78.3769 56.9639H83.3209L83.4178 56.8172ZM81.9637 50.803C81.7698 50.803 81.5759 50.803 81.382 50.803C81.1882 50.803 81.0427 50.803 80.8004 50.803L80.7034 50.8519C80.5096 51.3408 80.1703 52.1232 79.8794 52.7588L79.9279 52.8566C80.2187 52.8566 80.3157 52.8566 80.558 52.8566L80.655 52.8077C81.1397 51.9276 81.2851 51.732 81.9637 50.9008V50.803ZM78.4253 56.2304C78.4738 55.937 78.5707 55.3014 79.007 54.8124C79.3947 54.3724 79.9764 54.1279 80.6065 54.1279C80.9458 54.1279 81.6729 54.1279 82.206 54.9591C82.4969 55.4481 82.4969 55.8393 82.5453 56.2304H78.4253Z" fill="#013A81"/>
<path d="M85.3081 49.9229L84.4841 50.0695L84.3872 50.1673C84.4841 51.1941 84.4841 51.4386 84.5326 53.8345C84.5326 54.9102 84.5811 56.0348 84.5811 57.1106C84.5811 58.1863 84.5811 59.262 84.5811 60.3377L84.678 60.4355L86.2776 60.3866C87.15 60.3377 88.2164 60.2888 89.1373 59.4576C89.8159 58.8708 90.3006 57.844 90.3006 56.7683C90.3006 55.7415 89.9128 54.7635 89.1858 54.1768C88.6526 53.7367 88.0225 53.5411 87.4408 53.5411C87.1985 53.5411 86.6168 53.59 85.9867 53.8345C85.6959 53.9323 85.599 54.0301 85.4051 54.1768C85.3566 52.0743 85.4051 51.6831 85.4536 50.0206L85.3081 49.9229ZM85.9867 59.6531C85.7928 59.6531 85.5505 59.6531 85.3566 59.6531V54.9102C85.5505 54.7635 85.6959 54.6658 85.9867 54.5191C86.4714 54.2746 86.9077 54.2257 87.1985 54.2257C88.3618 54.2257 89.4281 55.1547 89.4281 56.7683C89.4281 57.6484 89.0888 58.6263 88.2164 59.1642C87.4893 59.6042 86.4714 59.6531 85.9867 59.6531Z" fill="#013A81"/>
<path d="M97.038 56.8171C97.038 56.1326 96.9896 55.2524 96.4079 54.4701C95.8263 53.6878 95.0507 53.4922 94.2267 53.4922C92.2879 53.4922 91.1731 54.9591 91.1731 57.0127C91.1731 59.0174 92.3364 60.5332 94.4691 60.5332C95.5839 60.5332 96.1656 60.1909 96.6988 59.8975L96.7472 59.7509L96.7957 59.0174L96.6988 58.9685C96.4079 59.2619 95.7293 59.8486 94.5176 59.8486C93.9359 59.8486 92.8696 59.6531 92.2879 58.4307C92.0456 57.8439 91.9971 57.4039 91.9971 56.9638H96.9411L97.038 56.8171ZM92.0456 56.2304C92.094 55.937 92.191 55.3013 92.6272 54.8124C93.015 54.3723 93.5966 54.1278 94.2267 54.1278C94.566 54.1278 95.2931 54.1278 95.8263 54.9591C96.1171 55.448 96.1171 55.8392 96.1656 56.2304H92.0456Z" fill="#013A81"/>
<path d="M103 59.1153L102.903 59.8976L102.806 60.0443C102.127 60.4844 101.352 60.5333 101.013 60.5333C99.4616 60.5333 97.9105 59.5553 97.9105 57.0617C97.9105 55.0569 99.0253 53.4434 101.158 53.4434C102.031 53.4434 102.467 53.6878 102.806 53.8834L102.855 53.9812L102.758 54.7147L102.661 54.7635C102.37 54.5191 101.934 54.1279 101.11 54.1279C100.479 54.1279 99.8978 54.4213 99.5585 54.7147C98.9284 55.3014 98.7345 56.1326 98.7345 56.9639C98.7345 58.9686 99.9948 59.702 101.061 59.702C101.788 59.702 102.37 59.4087 102.855 58.9197L103 59.1153Z" fill="#013A81"/>
</g>
<defs>
<clipPath id="clip0_1111_4320">
<rect width="103" height="62" fill="white"/>
</clipPath>
</defs>
</svg>
