<svg width="1904" height="400" viewBox="0 0 1904 400" fill="none" xmlns="http://www.w3.org/2000/svg">
    <g clip-path="url(#clip0_1603_24620)">
        <rect width="1904" height="400" fill="#00587A"/>
        <g style="mix-blend-mode:luminosity" opacity="0.13">
            <rect width="150.355" height="375.887" rx="75.1774" transform="matrix(0.706971 0.707242 -0.706971 0.707242 522.032 -345.24)" fill="#00AEEF"/>
            <rect width="150.355" height="225.532" rx="75.1774" transform="matrix(0.706971 0.707242 -0.706971 0.707242 243.003 -66.1074)" fill="#FFB600"/>
            <rect width="150.355" height="563.83" rx="75.1774" transform="matrix(0.706971 0.707242 -0.706971 0.707242 70.2717 106.693)" fill="#00AEEF"/>
            <path d="M349.301 301.74C390.686 301.74 424.235 267.973 424.235 226.32C424.235 184.667 390.686 150.9 349.301 150.9C307.916 150.9 274.367 184.667 274.367 226.32C274.366 267.974 307.916 301.74 349.301 301.74Z" fill="#C54B38"/>
            <rect width="150.355" height="375.887" rx="75.1774" transform="matrix(0.706971 0.707242 -0.706971 0.707242 628.329 -159.153)" fill="#FFB600"/>
            <rect width="150.355" height="451.064" rx="75.1774" transform="matrix(0.706971 0.707242 -0.706971 0.707242 229.718 239.619)" fill="#00AEEF"/>
            <path d="M827.634 115.667C869.019 115.667 902.568 81.9008 902.568 40.2476C902.568 -1.40558 869.019 -35.1721 827.634 -35.1721C786.249 -35.1721 752.7 -1.40554 752.7 40.2477C752.7 81.9009 786.249 115.667 827.634 115.667Z" fill="#A8AD00"/>
            <rect width="150.355" height="375.887" rx="75.1774" transform="matrix(0.706971 0.707242 -0.706971 0.707242 708.051 53.5464)" fill="#00AEEF"/>
            <rect width="150.355" height="225.532" rx="75.1774" transform="matrix(0.706971 0.707242 -0.706971 0.707242 1000.37 -238.886)" fill="#FFB600"/>
            <rect width="150.355" height="563.831" rx="75.1774" transform="matrix(0.706971 0.707242 -0.706971 0.707242 429.022 332.678)" fill="#C54B38"/>
            <path d="M721.338 514.429C762.723 514.429 796.272 480.662 796.273 439.009C796.273 397.356 762.723 363.589 721.338 363.589C679.953 363.589 646.404 397.356 646.404 439.009C646.404 480.662 679.953 514.429 721.338 514.429Z" fill="#00AEEF"/>
            <rect width="150.355" height="375.887" rx="75.1774" transform="matrix(0.706971 0.707242 -0.706971 0.707242 1412.27 -358.53)" fill="#FFB600"/>
            <rect width="150.355" height="563.831" rx="75.1774" transform="matrix(0.706971 0.707242 -0.706971 0.707242 1133.24 -79.39)" fill="#C54B38"/>
            <rect width="150.355" height="225.532" rx="75.1774" transform="matrix(0.706971 0.707242 -0.706971 0.707242 1571.71 -225.592)" fill="#C54B38"/>
            <rect width="150.355" height="563.831" rx="75.1774" transform="matrix(0.706971 0.707242 -0.706971 0.707242 1398.98 -52.7921)" fill="#00AEEF"/>
            <rect width="150.355" height="375.887" rx="75.1774" transform="matrix(0.706971 0.707242 -0.706971 0.707242 987.079 359.266)" fill="#FFB600"/>
            <path d="M1345.83 474.544C1387.21 474.544 1420.76 440.777 1420.76 399.124C1420.76 357.471 1387.22 323.704 1345.83 323.704C1304.44 323.704 1270.9 357.471 1270.9 399.124C1270.9 440.777 1304.44 474.544 1345.83 474.544Z" fill="#C54B38"/>
            <rect width="150.355" height="225.532" rx="75.1774" transform="matrix(0.706971 0.707242 -0.706971 0.707242 1518.56 119.979)" fill="#A8AD00"/>
            <rect width="150.355" height="375.887" rx="75.1775" transform="matrix(0.706971 0.707242 -0.706971 0.707242 1797.59 -159.153)" fill="#FFB600"/>
            <rect width="150.355" height="451.065" rx="75.1774" transform="matrix(0.706971 0.707242 -0.706971 0.707242 1678.01 252.905)" fill="#00AEEF"/>
            <rect width="150.355" height="225.532" rx="75.1774" transform="matrix(0.706971 0.707242 -0.706971 0.707242 1850.74 80.1049)" fill="#C54B38"/>
            <rect width="150.355" height="563.831" rx="75.1773" transform="matrix(0.706971 0.707242 -0.706971 0.707242 2262.63 -331.946)" fill="#A8AD00"/>
        </g>
    </g>
    <defs>
        <clipPath id="clip0_1603_24620">
            <rect width="1904" height="400" fill="white"/>
        </clipPath>
    </defs>
</svg>
