<svg width="600" height="1024" viewBox="0 0 600 1024" fill="none" xmlns="http://www.w3.org/2000/svg">
<g clipPath="url(#clip0_202_22586)">
<rect width="600" height="1024" fill="url(#paint0_linear_202_22586)"/>
<g style="mix-blend-mode:luminosity" opacity="0.5">
<path d="M264.975 -0.117529C294.233 -0.11754 317.952 -23.9848 317.952 -53.4266C317.952 -82.8683 294.233 -106.736 264.975 -106.736C235.717 -106.736 211.998 -82.8683 211.998 -53.4265C211.998 -23.9848 235.717 -0.117519 264.975 -0.117529Z" fill="#C54B38"/>
<rect width="106.286" height="265.715" rx="53.1431" transform="matrix(0.707043 0.707171 -0.707043 0.707171 180.433 -44.0341)" fill="#00AEEF"/>
<rect width="106.286" height="159.429" rx="53.1431" transform="matrix(0.707043 0.707171 -0.707043 0.707171 -16.833 153.265)" fill="#FFB600"/>
<path d="M58.3163 413.271C87.5745 413.271 111.293 389.403 111.293 359.962C111.293 330.52 87.5746 306.653 58.3163 306.653C29.0581 306.653 5.33962 330.52 5.33961 359.962C5.33959 389.403 29.058 413.271 58.3163 413.271Z" fill="#C54B38"/>
<rect width="106.286" height="265.715" rx="53.1431" transform="matrix(0.707043 0.707171 -0.707043 0.707171 255.582 87.4977)" fill="#FFB600"/>
<rect width="106.286" height="159.429" rx="53.1431" transform="matrix(0.707043 0.707171 -0.707043 0.707171 377.699 -34.6403)" fill="#A8AD00"/>
<rect width="106.286" height="265.715" rx="53.1431" transform="matrix(0.707043 0.707171 -0.707043 0.707171 574.965 -231.939)" fill="#00AEEF"/>
<rect width="106.286" height="318.858" rx="53.1431" transform="matrix(0.707043 0.707171 -0.707043 0.707171 -26.2261 369.362)" fill="#00AEEF"/>
<path d="M396.485 281.749C425.744 281.749 449.462 257.881 449.462 228.44C449.462 198.998 425.744 175.131 396.485 175.131C367.227 175.131 343.509 198.998 343.509 228.44C343.509 257.881 367.227 281.749 396.485 281.749Z" fill="#A8AD00"/>
<rect width="106.286" height="265.715" rx="53.1431" transform="matrix(0.707043 0.707171 -0.707043 0.707171 311.943 237.84)" fill="#00AEEF"/>
<rect width="106.286" height="159.429" rx="53.1431" transform="matrix(0.707043 0.707171 -0.707043 0.707171 518.602 31.1394)" fill="#FFB600"/>
<rect width="106.286" height="398.573" rx="53.1431" transform="matrix(0.707043 0.707171 -0.707043 0.707171 114.677 435.139)" fill="#C54B38"/>
<rect width="106.286" height="318.858" rx="53.1431" transform="matrix(0.707043 0.707171 -0.707043 0.707171 753.442 -203.745)" fill="#A8AD00"/>
<path d="M321.337 563.606C350.595 563.606 374.314 539.738 374.314 510.297C374.314 480.855 350.595 456.988 321.337 456.988C292.079 456.988 268.36 480.855 268.36 510.297C268.36 539.738 292.079 563.606 321.337 563.606Z" fill="#00AEEF"/>
<rect width="106.286" height="159.429" rx="53.1431" transform="matrix(0.707043 0.707171 -0.707043 0.707171 236.794 519.689)" fill="#FFB600"/>
<rect width="106.286" height="398.573" rx="53.1431" transform="matrix(0.707043 0.707171 -0.707043 0.707171 612.539 143.876)" fill="#C54B38"/>
<rect width="106.286" height="265.715" rx="53.1431" transform="matrix(0.707043 0.707171 -0.707043 0.707171 -7.43927 763.967)" fill="#00AEEF"/>
<rect width="106.286" height="159.429" rx="53.1431" transform="matrix(0.707043 0.707171 -0.707043 0.707171 114.678 641.827)" fill="#A8AD00"/>
<path d="M189.826 901.843C219.085 901.843 242.803 877.975 242.803 848.534C242.803 819.092 219.085 795.225 189.826 795.225C160.568 795.225 136.85 819.092 136.85 848.534C136.85 877.975 160.568 901.843 189.826 901.843Z" fill="#C54B38"/>
<rect width="106.286" height="159.429" rx="53.1431" transform="matrix(0.707043 0.707171 -0.707043 0.707171 311.943 651.231)" fill="#A8AD00"/>
<rect width="106.286" height="398.573" rx="53.1431" transform="matrix(0.707043 0.707171 -0.707043 0.707171 800.411 162.677)" fill="#00AEEF"/>
<rect width="106.286" height="265.715" rx="53.1431" transform="matrix(0.707043 0.707171 -0.707043 0.707171 509.209 453.932)" fill="#FFB600"/>
<rect width="106.286" height="159.429" rx="53.1431" transform="matrix(0.707043 0.707171 -0.707043 0.707171 387.092 782.755)" fill="#00AEEF"/>
<rect width="106.286" height="398.573" rx="53.1431" transform="matrix(0.707043 0.707171 -0.707043 0.707171 678.294 491.497)" fill="#A8AD00"/>
<rect width="106.286" height="265.715" rx="53.1431" transform="matrix(0.707043 0.707171 -0.707043 0.707171 264.975 904.893)" fill="#FFB600"/>
<path d="M349.517 1155.49C378.776 1155.49 402.494 1131.63 402.494 1102.19C402.494 1072.74 378.776 1048.88 349.517 1048.88C320.259 1048.88 296.541 1072.74 296.541 1102.19C296.541 1131.63 320.259 1155.49 349.517 1155.49Z" fill="#C54B38"/>
<rect width="106.286" height="398.573" rx="53.1431" transform="matrix(0.707043 0.707171 -0.707043 0.707171 640.719 735.775)" fill="#00AEEF"/>
</g>
</g>
<defs>
<linearGradient id="paint0_linear_202_22586" x1="594.744" y1="-0.000472279" x2="-27.0352" y2="24.6178" gradientUnits="userSpaceOnUse">
<stop stop-color="#28AAE2"/>
<stop offset="1" stop-color="#006095"/>
</linearGradient>
<clipPath id="clip0_202_22586">
<rect width="600" height="1024" fill="white"/>
</clipPath>
</defs>
</svg>
